. 
  
http://www.torrenting.com/        :     Greatest Movie Tracker on The Net!!!
 
http://www.Torrenting.com          :     Once & For all ;)


               www . Torrenting . Com 

(((((((((((((= Enjoy No RAR releases =))))))))))))))))))))


...................................NFO:....................................

.[img]http://img641.imageshack.us/img641/4603/highcostofliving.jpg[/img]


[color=blue][size=5][b]The.High.Cost.of.Living.2010.DVDRip.XVID.AC3.HQ.Hive-CM8[/b][/size][/color]


[b]Thx Hive

CM8 Doing It Right The First Time :D


Source: DVD-R CME
thx

Encode:
DVD had great quality, just did my usual cleanup, sharpness, rgb, denoise
got very nice
enjoy

Video: 720x384 @bitrate 1600 2pass
Audio: English AC3 5.1 @384
Sample: Yes, included[/b]
 
http://www.imdb.com/title/tt1479388/


General
Complete name                    : The.High.Cost.of.Living.2010.DVDRip.XVID.AC3.HQ.Hive-CM8.avi
Format                           : AVI
Format/Info                      : Audio Video Interleave
File size                        : 1.35 GiB
Duration                         : 1h 37mn
Overall bit rate                 : 1 993 Kbps
Writing application              : Nandub v1.0rc2
Writing library                  : Nandub build 1853/release

Video
ID                               : 0
Format                           : MPEG-4 Visual
Format profile                   : Advanced Simple@L5
Format settings, BVOP            : 2
Format settings, QPel            : Yes
Format settings, GMC             : No warppoints
Format settings, Matrix          : Default (H.263)
Muxing mode                      : Packed bitstream
Codec ID                         : XVID
Codec ID/Hint                    : XviD
Duration                         : 1h 37mn
Bit rate                         : 1 600 Kbps
Width                            : 720 pixels
Height                           : 384 pixels
Display aspect ratio             : 1.875
Frame rate                       : 23.976 fps
Color space                      : YUV
Chroma subsampling               : 4:2:0
Bit depth                        : 8 bits
Scan type                        : Progressive
Compression mode                 : Lossy
Bits/(Pixel*Frame)               : 0.241
Stream size                      : 1.09 GiB (80%)
Writing library                  : XviD 1.2.1 (UTC 2008-12-04)

Audio
ID                               : 1
Format                           : AC-3
Format/Info                      : Audio Coding 3
Mode extension                   : CM (complete main)
Codec ID                         : 2000
Duration                         : 1h 37mn
Bit rate mode                    : Constant
Bit rate                         : 384 Kbps
Channel(s)                       : 6 channels
Channel positions                : Front: L C R, Side: L R, LFE
Sampling rate                    : 48.0 KHz
Bit depth                        : 16 bits
Compression mode                 : Lossy
Stream size                      : 267 MiB (19%)
Alignment                        : Split accross interleaves
Interleave, duration             : 42 ms (1.00 video frame)
Interleave, preload duration     : 500 ms


Plot:
A young pregnant woman is forced into a horrible position, while the man
that put her there is so guilt-ridden he rapidly and anonymously shifts
from repulsive stranger to miraculous saviour.


Cast:
Isabelle Blais   ...     Nathalie
Zach Braff       ...     Henry Welles
Patrick Labb    ...     Michel
Julian Lo        ...     Johnny


[img]http://img839.imageshack.us/img839/8849/91964196.png[/img]
[img]http://img835.imageshack.us/img835/5323/cocot.png[/img]
[img]http://img822.imageshack.us/img822/9292/cococo.png[/img]
[img]http://img847.imageshack.us/img847/1569/coccocoocococo.png[/img]
[img]http://img638.imageshack.us/img638/2986/coccoocococo.png[/img]
[img]http://img17.imageshack.us/img17/2739/cocococox.png[/img]
[img]http://img403.imageshack.us/img403/5752/cococococo.png[/img]



Greetz

ViSiON,SiC,SANTi,3LT0N,YanKeeS,MAGNET,THC,T0XiC,LKRG,FANTASIA-PLAY,FANTASIA-M,FLAWL3SS,
D2U,WBZ,BHRG,NOVA,Vik,Rapeseed,SAFC,goldadvance,MEMORY100,KaN1vE,Unevano,Pinnz,Wayne
Mr Hive,cedrict wink,and all P2P groups
Great Work Guys :D

LOOKING FOR ANYTHING YOU WANT TO LOOK AND SOUND BETTER

CM8@hushmail.com